<svg xmlns="http://www.w3.org/2000/svg" viewBox="0 0 365.47 300.75"><defs><style>.cls-1{fill:#61a0fb;}</style></defs><title>Asset 1</title><g id="Layer_2" data-name="Layer 2"><g id="Layer_1-2" data-name="Layer 1"><path class="cls-1" d="M121,107c0-.52,0-1,0-1.55,0-2.71.12-5.42.14-8.12,0-4.63,0-4.63,4.55-4.9h1.52a15.64,15.64,0,0,0,2.46.08c2.41-.31,3.17.7,3.08,3.07-.14,3.45.06,6.91.11,10.37,0,.35,0,.7,0,1.06-.22,6.31-.28,12.62,0,18.93,0,.35,0,.71.05,1.06a41.21,41.21,0,0,0,4.66,19c.08.6.11,1.22.81,1.49A26.7,26.7,0,0,0,145.67,158a2.12,2.12,0,0,0,1.47,1.61c2,3,5,5,8.05,6.85a1.91,1.91,0,0,0,1.55,1,8.39,8.39,0,0,0,3.11,2c2.32,1.22,2.34,1.19,2.22-1.47l0-1.55c.28-6.31.24-12.62,0-18.92V145.9c.21-6.31.27-12.62,0-18.93,0-.35,0-.71,0-1.06q.39-9.47,0-18.93c0-.35,0-.71,0-1.06.3-6.31.24-12.62,0-18.93,0-.52,0-1,0-1.55.48-5,.48-5-4.33-4.6l-1.48.11a2.24,2.24,0,0,0-2.49,0,21.6,21.6,0,0,0-6.47-.22l-1.06-.06-1-.08a3.29,3.29,0,0,0-3-.3l-2-.22a1.77,1.77,0,0,0-2-.3l-1.52-.18a1.14,1.14,0,0,0-1.48-.29l-1.52-.22a1.17,1.17,0,0,0-1.48-.31l-1-.2a.72.72,0,0,0-1-.27l-1-.22a.69.69,0,0,0-1-.25l-.95-.18a2,2,0,0,0-1.55-.5,64.53,64.53,0,0,1-17.9-8.88,3.65,3.65,0,0,0-2.07-1.77h0a5,5,0,0,0-2-2c-.19-.5-.37-1-.55-1.49l0,0,1-.05a3.82,3.82,0,0,0,3,1.41,2.94,2.94,0,0,0,1.76.79,6.83,6.83,0,0,0,1.19.85c14.22,6.09,29.13,7.81,44.43,6.69,1.67-.13,3.54.13,5.44-1a7,7,0,0,0-4.43-.32l-1.5-.17a1.65,1.65,0,0,0-2-.3l-1.53-.21a1.14,1.14,0,0,0-1.47-.32l-1.5-.22a1.34,1.34,0,0,0-1.51-.32l-1-.21a.75.75,0,0,0-1-.27l-1-.18a.69.69,0,0,0-1-.25l-1-.27-15.46-6A134.19,134.19,0,0,1,107.7,51a3.1,3.1,0,0,0-1.86-1.65,13.94,13.94,0,0,0-3-2.91,1.94,1.94,0,0,0-1.8-1.49l-3.39-4.34.22-.25,7.83,4.86a3.37,3.37,0,0,0,2.08,1.26c.1.13.17.31.3.39,12.89,7.86,26.67,12.34,42,10.87,1.74-.17,3.62-.07,5.24-1-.08-.2-.1-.34-.15-.35a10,10,0,0,0-1.22-.2,67.66,67.66,0,0,1-22.11-5.63c-3-1.29-5.61-3.23-8.63-4.4a3.67,3.67,0,0,0-2.46-1.58L115,40c.73-1,1.78-.63,2.73-.67,3.17-.13,6.37.3,9.53-.41,6.32.19,12.64.21,19,0h1c6.32.25,12.64.19,19,0h1.51c6.32.17,12.64.21,19,0h1c6.32.23,12.64.19,19,0h1.51c6.32.16,12.64.22,19,0h1c6.32.22,12.64.21,19,0l1,0c6.48.23,13,.25,19.44,0l1,.06c1.2,1.58.19,3.34.4,5a10.58,10.58,0,0,0-.54,4c-.1.67-.2,1.35-.29,2A9.55,9.55,0,0,0,267.11,55L263,64.8a1.86,1.86,0,0,0-.93,1.62c-3.62,4.84-7.73,9.11-13.34,11.67a4.33,4.33,0,0,0-2.46,1l-6.52,1.31a.68.68,0,0,0-1,.11l-10.48.16h-1.06c-6.47-.23-12.94-.26-19.42.07l-1.06,0c-2.21-.57-3.35.08-3,2.55.11.73.11,1.47.16,2.21,0,.52,0,1,0,1.55q-.33,9.23,0,18.44c0,.52,0,1,0,1.55q-.37,9.47,0,18.93c0,.35,0,.7,0,1.06-.28,6.31-.23,12.62,0,18.93v1.54c-.22,6.32-.26,12.63,0,18.94v1.06c-.19.87-.53,2,.12,2.52s1.57-.44,2.35-.76c.14-.06.23-.22.35-.33a8.67,8.67,0,0,0,4-2.45,41.93,41.93,0,0,0,16.11-17.75,5.91,5.91,0,0,0,1.82-3.26c3.05-5.77,3.88-12.06,4.34-18.44,0-.35,0-.71.05-1.06.29-6.31.23-12.63,0-18.94,0-.51,0-1,0-1.53,0-3.58.16-7.16.07-10.73-.05-1.8.6-2.33,2.31-2.24a58.29,58.29,0,0,0,6.74,0c1.92-.12,2.67.43,2.6,2.49-.12,3.48.07,7,.14,10.46a1.93,1.93,0,0,0,0,1.56c-.37,6.31-.29,12.62-.05,18.92,0,.36,0,.71,0,1.07a88.72,88.72,0,0,1-3.7,19,1.64,1.64,0,0,0-.52,1.49c-1.81,3.73-3.38,7.59-5.8,11-1.92,2.69-4,5.3-5.94,8a1.09,1.09,0,0,0-.82,1h0a2,2,0,0,0-1.56,1.47c-1.89,1.59-3.79,3.18-5.68,4.79-4,3.4-8.68,5.68-13.27,8.12l-1,.38A119.62,119.62,0,0,1,192.25,186c-8.09.91-16.14.85-24.07-1.27a15.8,15.8,0,0,0-2-.29,77.79,77.79,0,0,1-18.41-8.59,2.52,2.52,0,0,0-1.51-1.06l-8.42-7.42a2,2,0,0,0-1.16-1.39,107.7,107.7,0,0,1-9-13,3.09,3.09,0,0,0-1.39-2.7c-.87-.74-.23-2.05-1.06-2.81a1.68,1.68,0,0,0-.55-1.48,105.66,105.66,0,0,1-3.39-14.48,1.65,1.65,0,0,0-.14-2l-.13-2.49c0-.36,0-.71,0-1.06C121.28,119.6,121.32,113.29,121,107Z"/><path class="cls-1" d="M251.36,250.34a12.51,12.51,0,0,0-.75-5,5.51,5.51,0,0,0-.33-2.51.66.66,0,0,0-.17-1l-.33-2.5a.67.67,0,0,0-.18-1c-.09-.66-.17-1.33-.26-2,.23-1.62-.3-3.12-.6-5.4-.79,1.88-1.32,3-.76,4.36v.75c-1.38,2.45-1.14,5.25-1.66,7.87a11,11,0,0,0-.41,4.42c-.06.49-.13,1-.19,1.49a.68.68,0,0,0-.17,1c0,2.72-1.55,3.38-4,3.08a51.84,51.84,0,0,0-5.44-.09,1.1,1.1,0,0,0-.49-1l-.2-1.51a1.16,1.16,0,0,0-.31-1.48l-.24-1.5a1.68,1.68,0,0,0-.29-1.56,3.21,3.21,0,0,0-.27-1.95.65.65,0,0,0-.21-1,3.52,3.52,0,0,0-.31-2,.64.64,0,0,0-.2-1,83.26,83.26,0,0,0-1.78-10.51.65.65,0,0,0-.2-1l-.15-1a1.26,1.26,0,0,0-.35-1.5,106.61,106.61,0,0,0-2.49-15c.48-2-1.2-3.82-.38-5.83,1.08,0,2.16,0,3.23.15,1.68.2,3.52-.66,5,.73l.12.88q1.77,13.08,3.53,26.14h.71q1.09-7.57,2.21-15.16a1.06,1.06,0,0,0,.24-1.47c.08-.68.17-1.36.25-2a1.05,1.05,0,0,0,.26-1.47,3.53,3.53,0,0,0,.24-2,.62.62,0,0,0,.2-1,4.31,4.31,0,0,0,.3-2.53,2.66,2.66,0,0,1,3.23-2.09,30.25,30.25,0,0,0,3.92-.08l.64.69c0,.36.08.72.11,1.07l.09.94a1.58,1.58,0,0,0,.29,2l.21,1.54a1.58,1.58,0,0,0,.29,2l.15,1a2.31,2.31,0,0,0,.35,2.45l.15,1a2.31,2.31,0,0,0,.35,2.45l.15,1a2.31,2.31,0,0,0,.36,2.46l.22,1.53c.16,3.09.22,6.21,1.65,9.09.35-3.08,1.43-6,1.23-9.09l.12-1a2.51,2.51,0,0,0,.38-2.46l.11-1a2.49,2.49,0,0,0,.39-2.46c0-.35.08-.69.11-1a2.51,2.51,0,0,0,.39-2.47l.12-1c1.06-2.13.85-4.51,1.28-6.76.25-1.34.8-1.83,2.13-1.78,2.07.09,4.15.05,6.23.06l0,0v1.54a23,23,0,0,0-1,6c-1.39,3.91-1.66,8-2.49,12.06-.2,1-.35,1.94-.52,2.91s-.27,1.95-.38,2.93c-.61,5.2-2.19,10.26-2.45,15.52a1.45,1.45,0,0,0-.37,1.54c-.1.67-.21,1.34-.31,2a.7.7,0,0,0-.21,1c-.22,1.58-1.06,2.19-2.7,2.08-2.21-.15-4.45-.08-6.67-.1,0-.54,0-1.1-.52-1.48Z"/><path class="cls-1" d="M233,25.13a1.94,1.94,0,0,0,.8,1.36c-1.68,1.34-3.74.12-5.52.83h-1.1c-1.37-.07-2.75-.16-4.12-.21-1.83-.07-3.77.38-5.3-1.11a3,3,0,0,0-1.5-1.5,26.17,26.17,0,0,0-8.5-6,1.12,1.12,0,0,0-1-.58,42.56,42.56,0,0,0-19-5.91l-1,0c-6.51-.92-12.79.23-19,2.09a2,2,0,0,0-1.54.67,43.24,43.24,0,0,0-16.5,9.73A3.32,3.32,0,0,0,148.2,26l-1,1-1,.35c-4.58-.56-9.15.17-13.73.05-.45-1,.46-1.57.66-2.36,1.17-1.39,2.38-2.75,3.51-4.16,2.8-3.51,6.55-6,9.63-9.22a1.74,1.74,0,0,0,1.64-.91,41.88,41.88,0,0,0,7.6-4.64,3.21,3.21,0,0,0,2.3-1l8.48-2.91c1-.2,2.07.09,2.91-.68l4-.73a.76.76,0,0,0,1-.25l3-.26A1.24,1.24,0,0,0,178.7,0h6.53a2.66,2.66,0,0,0,2.52.17,75.71,75.71,0,0,1,18.94,4.4,1.83,1.83,0,0,0,1.5.55.3.3,0,0,0,.26.06,3.47,3.47,0,0,0,2.63,1.47A76.41,76.41,0,0,1,226.68,18a3.65,3.65,0,0,0,1.5,1.49Z"/><path class="cls-1" d="M187.74,254.09l-1-.34c0-1.8-.09-3.59-.13-5.39,0-.51,0-1,0-1.53V220.18a35.81,35.81,0,0,0-6.06,8.11,1.24,1.24,0,0,1-1.87.07,45.72,45.72,0,0,0-6-8.36,24.23,24.23,0,0,0-.1,8.36q0,9.24,0,18.48a1.14,1.14,0,0,0,0,1.51,3.87,3.87,0,0,0-.05.49c-.13,4.74-.13,4.74-4.85,5.24H166.2l-2-.21c0-3.23,0-6.46,0-9.69-.09-5.79.32-11.58-.23-17.36q.47-9.45.09-18.89l0-1.09c.42-.6,1.14-.55,1.73-.78a2.67,2.67,0,0,0,2,0c5-.84,7.49,2.07,9.36,6a12.46,12.46,0,0,0,.95,1.45c1.53,2.27,1.45,2.21,3.08,0,1.85-2.49,2.91-5.57,5.52-7.51h1.08c1,.08,1.93.11,2.89.24,1.57.2,3.27-.58,4.71.6,0,.35,0,.71,0,1.06-.23,6.31-.22,12.62.07,18.93,0,.35,0,.71,0,1.07-.29,6.3-.24,12.61,0,18.92l0,1.56a26.36,26.36,0,0,0-.08,3.2c.18,1.87-.6,2.47-2.41,2.37S189.47,254,187.74,254.09Z"/><path class="cls-1" d="M105.26,206.05a2.71,2.71,0,0,0,2,0l11.51.29a.76.76,0,0,0,1,.3l1,.25a43.58,43.58,0,0,1,6.33,4.75,16.08,16.08,0,0,1,.59,15.22c-3.11,3.11-3.11,3.11-.58,5.29.52,1.91,1.38,3.8,1.47,5.73.25,4.86.13,9.74.2,14.62,0,1.09-.62,1.42-1.48,1.61l-1.56,0c-1.67-.45-3.79.6-5-.53s-.19-3.44-.64-5.17v-1.55c0-2.08.1-4.15.14-6.23.11-6.53-4.56-7.69-9.45-7.16-1,.11-1,.9-1,1.67l.12,11.73v1.54a16.59,16.59,0,0,0-.11,2.9c.27,2-.53,2.87-2.49,2.8l-1.55,0c-4.31-.49-4.31-.49-4.53-5a6,6,0,0,0-.12-.72v-1.55c.35-6.15.24-12.29.07-18.44,0-.52,0-1,0-1.55.22-6.31.26-12.63.07-18.94l.1-1.49Zm4.49,13.57c0,5.95,0,5.95,5.49,5.55,3.38-.25,5.91-2.71,5.8-5.67s-2.5-5-6-5.06C109.75,214.34,109.75,214.34,109.75,219.62Z"/><path class="cls-1" d="M329.14,254.09h-1.07c-1.88-.63-4,.46-5.79-.74.5-4.84.15-9.68.19-14.52a1.51,1.51,0,0,0-.7-1.24,6.93,6.93,0,0,0-8.91-4.09,1.39,1.39,0,0,0-.87,1.36,65,65,0,0,0,0,11.92,1.29,1.29,0,0,0,0,1.56c0,.91-.13,1.82-.09,2.73.09,2-.65,3.12-2.79,3H307.6l-4.06-.22c0-6.79,0-13.58,0-20.37,0-2.72.31-5.45-.27-8.15a144.47,144.47,0,0,0,.07-17.41c.23-.78.42-1.59,1.32-1.9a4.16,4.16,0,0,0,2.47,0,6.5,6.5,0,0,0,3.5,0l10,.22a.7.7,0,0,0,1,.29l1,.25a46.7,46.7,0,0,1,6.39,4.7.54.54,0,0,0,.16.35,17.68,17.68,0,0,1,1.6,12.52c-.12.41-.24.82-.35,1.23a3.15,3.15,0,0,0-1.31,2.27h0c-2.39,2-2.39,2-.17,3.76.28.73.56,1.46.85,2.2a.79.79,0,0,0,.39,1l.27,1a.69.69,0,0,0,.22,1l.21,5.51a48.05,48.05,0,0,0,.07,10.52C330.69,253.76,329.9,253.9,329.14,254.09Zm-17.39-34.27c.16,6.07-1.3,5.39,5.65,5.32a5.42,5.42,0,0,0,5.68-5.64c-.11-3-2.46-5.05-5.92-5C310.73,214.48,311.87,213.69,311.75,219.82Z"/><path class="cls-1" d="M345.13,206.86l0,1,0,13c-.06.33-.05.75.29.8.5.09.64-.36.71-.78a10.64,10.64,0,0,0,2.15-3.73,2.34,2.34,0,0,0,1.42-2.2c2.28-1.87,3.27-4.59,4.66-7.05a.87.87,0,0,0,.68-1c2.79-1.76,5.83-.47,8.75-.71.17,0,.39.44.58.68-.17.31-.35.62-.53.93-4,5.44-7.16,11.36-10.77,17a1.45,1.45,0,0,0,.31,2.18l.45.94c.77,1.83,1.46,3.69,2.33,5.46,2.31,4.66,4.27,9.49,6.94,14a1.62,1.62,0,0,0,.75,1.72l1.44,3.42c.3.71.31,1.39-.68,1.4-2.56,0-5.2.34-7.64-.23-1.51-.34-1.59-2.7-2.41-4.11-.32-.56-.67-1.11-1-1.66,0-.58-.13-1-.8-1.07a12.58,12.58,0,0,0-3.15-7,2.68,2.68,0,0,0-1-2.52c-.37-.94-.8-2.51-1.65-2.28-1.17.33-1.8,1.78-1.91,3.17a1.93,1.93,0,0,0,0,.24c0,2.8.07,5.59.11,8.38v1.51c0,1.32-.07,2.64-.12,4,0,.57.05,1.34-.66,1.43-2.38.32-4.9.64-7.11-.09-1.59-.52-.45-2.66-.74-4-.09-.4-.13-.81-.19-1.22a1.92,1.92,0,0,0,0-1.59,182.54,182.54,0,0,0,.1-18.42l0-1.56c.25-6.3.3-12.61.06-18.92,0-.35,0-.7,0-1.06A10,10,0,0,1,345.13,206.86Z"/><path class="cls-1" d="M272.77,248.29a2.5,2.5,0,0,0-1-2.06,30.51,30.51,0,0,1-.76-8.15c-.07-3.39.36-6.8-.18-10.18,0-.36,0-.72,0-1.07a18.37,18.37,0,0,0,.18-5.68,14.94,14.94,0,0,1,5.08-12.87,17.31,17.31,0,0,1,13-2c.27.19.53.39.79.59,0,.34.06.3.08,0l1,.11a6.89,6.89,0,0,0,2.59,2,15.15,15.15,0,0,1,4.53,12.45,50.22,50.22,0,0,0,.11,5.48c0,.51,0,1,0,1.54-.52,5.9.61,11.88-.89,17.73a3.54,3.54,0,0,0-1.28,2.21,20.72,20.72,0,0,1-7.49,5.86l-1,.17C281.55,255.09,276.54,253.22,272.77,248.29Zm7-30.36a1.58,1.58,0,0,0-.49,1.34v21.32a2.09,2.09,0,0,0,.75,2c1,4.05,4.68,4.1,7.58,2.17a4.24,4.24,0,0,0,2.33-4.11c.05-7.06.06-14.12-.06-21.18,0-1.61-.31-3.38-2.2-4.13C284.51,212.8,280.94,214,279.75,217.93Z"/><path class="cls-1" d="M146.21,206a1.84,1.84,0,0,0,1.54,0c1.3.55,2.89-.38,4.07.81l.15,1.07c.91,6.34,1.93,12.67,3.31,18.93l.18,1.05c.85,6.36,2,12.67,3.28,18.95.06,1-.19,2.08.5,3l.33,2a.73.73,0,0,0,.18,1c-.15,1.18-1,1.08-1.87,1.08l-6.19,0-.47-.59-.2-1.5a1.33,1.33,0,0,0-.29-1.5c.08-3-2-1.69-3.45-1.73h-1.07c-1.08-.06-2.15-.1-3.22-.19-1.29-.12-1.66.54-1.88,1.72-.7,3.78-.76,3.77-4.67,3.76H133.7c-1.07,0-1.5-.42-1.27-1.54.39-1.87.72-3.75,1-5.63,1-6.3,2.55-12.52,3.19-18.88a.77.77,0,0,0,.25-1.06l.36-1.94a.8.8,0,0,0,.25-1l.21-1.49a1.3,1.3,0,0,0,.31-1.5l.15-1a1.26,1.26,0,0,0,.32-1.49l.21-1.5a1.3,1.3,0,0,0,.32-1.5l.15-1a1.24,1.24,0,0,0,.31-1.49,14.47,14.47,0,0,0,.77-5c.47-.4.43-1,.48-1.5Zm0,34.82c2.77.68,3.15.34,2.73-2.32-.46-2.93-.85-5.87-1.32-8.81-.43-2.73-.92-5.46-1.39-8.2a19.42,19.42,0,0,0-1.36,6.89c-.55,3.1-1.15,6.19-1.63,9.3C142.76,241.07,142.81,241.07,146.25,240.82Z"/><path class="cls-1" d="M224.15,247.33a.61.61,0,0,0,0,1,15.89,15.89,0,0,0-.16,2.48c.19,2.46-.78,3.26-3.3,3.14-4.14-.19-8.3,0-12.45.09h-1.55l-5.54-.22q-.09-9-.19-18a35.68,35.68,0,0,0,0-7.45,2,2,0,0,0,0-1.58q.45-9.44,0-18.89l.17-1.58,5.58-.32a3.61,3.61,0,0,0,2.53,0l12,.18c1,0,2-.19,2.79.6,0,.36,0,.72,0,1.08-.54,1.92.05,3.83.05,5.75l-.78.9c-3.91,0-7.82-.05-11.72-.13-1.54,0-2.05.65-2,2.12.08,2.16.1,4.33,0,6.49-.08,1.66.64,2.19,2.21,2.16,3.32-.07,6.65,0,10,0,1.29,0,2.08.34,2.26,1.67,0,.35,0,.71,0,1.07a15.79,15.79,0,0,0-.12,5l-.65.56c-3.91,0-7.82,0-11.72-.13-1.56,0-2,.6-2,2.07.08,2.66.1,5.32,0,8-.07,1.76.64,2.34,2.33,2.3,3.33-.07,6.66,0,10,0C223.09,245.67,224,245.93,224.15,247.33Z"/><path class="cls-1" d="M86.81,233.57l-1.55,0a10,10,0,0,0-4.55.16c-1.29.54-.79,1.69-.8,2.59,0,5.86,0,11.71,0,17.57H71.75c-.07-3.67-.15-7.34-.22-11a106.53,106.53,0,0,0,0-13.49,12.56,12.56,0,0,0,0-5,158.35,158.35,0,0,0,0-16.45l.18-1.55,1.56-.31a74.46,74.46,0,0,0,13.52,0l7.61.32c0,2.68-.07,5.37-.1,8l-7.5.26h-1.1a10.92,10.92,0,0,0-5,.08.92.92,0,0,0-.76.85q0,4.28,0,8.54c0,.45.37.7.82.75l4.51,0a1.78,1.78,0,0,0,2,0l5.15.07c1,0,2,0,2.23,1.34a1.74,1.74,0,0,0,0,2,17,17,0,0,0,0,2.47c.28,2.11-.65,2.74-2.66,2.6A49.73,49.73,0,0,0,86.81,233.57Z"/><path class="cls-1" d="M0,207.91l.24-1.56L4.81,206a2.63,2.63,0,0,0,2,0,176.57,176.57,0,0,0,18,0,1.94,1.94,0,0,0,1.55,0c.28.27.57.53.86.79a.81.81,0,0,0,0,1.06c-.33,2.24.32,4.61-.91,6.72l-1.07,0c-1.88-.45-3.78-.12-5.67-.21-1.22-.06-1.85.45-1.82,1.74.07,3.55.1,7.1.15,10.65l.06,1c-.23,6.47-.32,13,0,19.42,0,.35,0,.7-.05,1.06a23,23,0,0,0-.12,3.2c.18,1.89-.6,2.39-2.42,2.38-5.75,0-5.75.07-6.22-5.59v-1.53c.22-6.15.2-12.31,0-18.46,0-.51,0-1,0-1.53,0-3.06,0-6.13.18-9.18.17-2.38-.59-3.44-3-3a1.6,1.6,0,0,0-1.57,0,10.05,10.05,0,0,0-2-.17c-2,.24-2.87-.51-2.68-2.61A27.41,27.41,0,0,0,0,207.91Z"/><path class="cls-1" d="M288.68,300.09l-1-.4c-1-1.18-2.06-1.16-3.46-.38a9.21,9.21,0,0,1-8.57.05,4.59,4.59,0,0,1-3.05-4.59c.07-2.13-.13-4.27-.21-6.41,0-.36,0-.72,0-1.08.06-4.9.13-9.8.17-14.7,0-1.23,0-2.3,1.74-2.3s1.72,1.09,1.72,2.32c0,4.9.07,9.81.11,14.71,0,.5,0,1,0,1.5,0,1.66-.11,3.32-.08,5,.05,2.71,1.1,3.71,3.84,3.75s4.15-1.11,4.25-3.74c.06-1.65-.06-3.32-.09-5,0-.51,0-1,0-1.54,0-4.65.23-9.32.08-14-.08-2.4.65-3.39,3-3a6.71,6.71,0,0,1,.4,3.17q0,9.93,0,19.86c0,1.14-.22,2.37,1,3.13,1.6,1.63,3.5,1.32,5.31.61s1.86-2.38,1.82-4c0-1.41-.07-2.82-.1-4.23l0-1.52q.07-7.35.12-14.69c0-1.2-.13-2.33,1.7-2.33s1.7,1.11,1.71,2.32q0,7.35.13,14.69c0,.51,0,1,0,1.53,0,1.48-.18,3-.1,4.44a6.36,6.36,0,0,1-3.69,6.42C293.22,300.86,290.94,300.05,288.68,300.09Z"/><path class="cls-1" d="M64.69,300.22c-1.49-.48-1-1.76-1-2.74,0-7,0-13.94,0-20.91,0-1.59-.18-3.28-2-4s-3.38.06-4.75,1.33a5,5,0,0,0-1.62,4c.05,4.57,0,9.14,0,13.71a50.64,50.64,0,0,0,0,5.23c.25,2.37-.71,3.22-3,2.88-.42-7.18-.12-14.36-.19-21.54,0-1,.28-2-.36-2.89-.87-3.13-2.51-3.72-5.52-2a2.11,2.11,0,0,0-1.59,1.42,2.78,2.78,0,0,0-.91,2.21c0,3.44.08,6.89.13,10.33,0,.35,0,.7,0,1-.06,3.06-.14,6.12-.16,9.19,0,1.25,0,2.28-1.76,2.25-1.62,0-1.65-.93-1.65-2.11,0-8.45,0-16.91,0-25.37,0-.63-.23-1.42.52-1.78s1.08.37,1.57.8c1.61,1.41,2.17-.39,3.09-1.11l.67-.26c2.8-.16,5.67-.63,7.85,1.84.5.56,1,.44,1.49,0,3-2.77,6.29-2.33,9.65-.72l.91,1a18.82,18.82,0,0,1,.69,6.34c0,3,.1,5.93.16,8.9a2.16,2.16,0,0,0,0,1.58c0,1.57,0,3.14-.17,4.7-.2,2.1.6,4.28-.51,6.31C65.73,299.75,65.13,299.64,64.69,300.22Z"/><path class="cls-1" d="M208.08,270.05c3.2,1.29,4.38,3.66,4.23,7.06s.08,6.77.14,10.16c0,.37,0,.73,0,1.1a32.29,32.29,0,0,0-.17,4.39c.32,3.69-1.12,6.17-4.64,7.4-.58,0-1.2,0-1.59.55a10.59,10.59,0,0,1-4.88-.55c-2.74-1.27-4.54-3.22-4.5-6.52.08-5.57,0-11.14,0-16.71,0-4.94,2.23-7.05,7.23-7.11.92,0,1.83-.06,2.74-.09Zm-7.86,18.76c0,1.4-.09,2.79-.08,4.18,0,4.3,2.77,6,6.66,4,1.9-.29,2.32-1.68,2.33-3.28,0-5.8,0-11.6,0-17.4,0-1.66-.44-3.15-2.43-3.5-4.36-1.51-6.56,0-6.55,4.52,0,3.31.06,6.62.1,9.94Z"/><path class="cls-1" d="M220,287.28q.09-7.23.17-14.45c0-1.21-.33-2.56,1.72-2.55s1.69,1.36,1.7,2.56q.09,7.47.17,15l-.06,1c0,1.82-.14,3.64-.08,5.45.08,2.54.85,3.16,3.6,3.16l1-.15c3.58-1.34,4.3-2.92,3.85-8.44,0-.51,0-1,0-1.54.05-4.89.11-9.79.15-14.69,0-1.21-.12-2.32,1.7-2.32s1.69,1.13,1.69,2.33q0,7.35.1,14.7l0,1.49c0,3.07-.05,6.14-.09,9.21,0,.63.19,1.42-.73,1.63-.71.16-1.05-.36-1.3-.91-.47-1.09-1.09-1.11-1.85-.29a8.64,8.64,0,0,1-4,2,.8.8,0,0,0-1.05.3c-4.08-.33-6.38-2.69-6.5-6.64-.06-1.9-.12-3.8-.19-5.7C220,288,220,287.64,220,287.28Z"/><path class="cls-1" d="M307.92,298a.33.33,0,0,0-.14-.22,17.3,17.3,0,0,1-.74-6.11q0-8.42-.13-16.83c.32-.89.63-1.79.95-2.68.65-.53,1.52-.78,2-1.58a15.61,15.61,0,0,1,6.4-.72c4.08.2,6.25,2.43,6.32,6.49.06,3.66.09,7.32.13,11,0,.35,0,.69,0,1-.05,1.89-.09,3.79-.15,5.68a5.74,5.74,0,0,1-4.44,5.81,13.13,13.13,0,0,1-8.94-.76Zm2.28-13.16c0,3-.05,6,0,9,.06,2.66,1.53,3.93,4.38,4s4.51-1.3,4.53-4c.05-5.73,0-11.46,0-17.18,0-2.83-1.45-4.15-4.37-4.19-3.08,0-4.51,1.27-4.56,4.27C310.16,279.33,310.2,282.07,310.2,284.81Z"/><path class="cls-1" d="M6.34,271.35a11.2,11.2,0,0,1,9.35-1.09c3.34,1,5.37,5.65,4,8.79-.41.94-1.2.7-1.91.73s-1.33-.19-1.37-1.06a14.6,14.6,0,0,1,0-1.75c.11-2.1-.43-3.87-2.71-4.44-2-.48-4-.39-5.11,1.52a4.49,4.49,0,0,0,1,5.71,84.55,84.55,0,0,0,8.69,8.13c.13.46.27.91.85,1l1.2,3.94a3.08,3.08,0,0,0-.09,2.54c-1.1,3.39-2.9,4.76-6.44,4.91A12.82,12.82,0,0,1,7,299.16l-1.84-1.72a14.2,14.2,0,0,1-.3-7.15l1-.2c2.25,0,2.11,1.55,2,3.1-.09,2.13.62,3.78,2.9,4.32,2.06.48,4.13.4,5.39-1.49s.62-3.83-.61-5.58a8.47,8.47,0,0,0-2.7-2.13,2.4,2.4,0,0,0-1.58-1.93,19.63,19.63,0,0,0-4.08-4,4.83,4.83,0,0,0-1.86-2.07,16.55,16.55,0,0,1-.58-6.49.88.88,0,0,0,.4-1c.13-.3.27-.6.41-.9Z"/><path class="cls-1" d="M349.1,270.32c2.48-.44,3.36.51,3.18,3.07a28.08,28.08,0,0,0,.15,7.38c-.18.28-.24.65.07.76.49.17.58-.3.67-.66,2-3,4-6.07,6-9.11.45-.7.82-1.48,1.83-1.43.74,0,1.69-.33,2.14.26s-.36,1.33-.72,1.92a49.54,49.54,0,0,1-4.25,6.69c-2.52,3-2.16,5.56.16,8.28.25.75.29,1.61,1,2.12,1.26,2.53,2.59,5,3.74,7.6.31.71,1.79,1.75.23,2.4a2.39,2.39,0,0,1-3.37-1.17c-1.23-2.64-2.59-5.21-3.92-7.8-.42-.8-.94-1.55-1.42-2.32-.08-.63,0-1.49-.92-1.44s-1,.76-1,1.47c-1,2.82-.4,5.73-.39,8.58,0,2.07-.45,3.17-2.69,2.9a2.54,2.54,0,0,1-.53-2.1Q349.08,284,349.1,270.32Z"/><path class="cls-1" d="M87.3,288.82l-.53.45-1.52.69a16.16,16.16,0,0,1-5,.29c-1.48-.06-2.13.43-2,2,.09,1.82,0,3.65,0,5.47,0,1.22-.11,2.08-1.69,2.07s-1.78-.72-1.77-2c0-3-.06-6-.09-9,0-.51,0-1,0-1.52,0-5,.12-10,.1-14.95,0-1.46.42-2.14,2-2.05,2.82.16,5.65-.23,8.46.29l1.35.52c2.28,1.95,2.82,4.5,2.62,7.35s.38,5.94-.62,8.83Zm-9-8.82c0,1.91,0,3.82,0,5.73,0,.65-.1,1.35.58,1.79,2.34,1.55,6.72-.57,6.86-3.39.1-2,0-4,0-6,0-4.39-1.34-5.57-5.7-5.38-1.48.07-1.84.69-1.8,2C78.32,276.52,78.27,278.26,78.27,280Z"/><path class="cls-1" d="M142.84,287.3c0-4.69.08-9.38-.14-14.06-.12-2.45.75-3.29,3.05-2.93.85,4.66.16,9.36.39,14,.05,1.13-.2,2.36,1.07,3.06a5.35,5.35,0,0,0,4.93.85,3.13,3.13,0,0,0,2.75-3.51c-.08-4.06,0-8.13,0-12.2,0-1.23,0-2.28,1.75-2.27s1.65,1.2,1.65,2.36q0,7.33-.07,14.68l-.65,1.38c-.82.69-1.45,1.77-2.55,1.92-2.65.37-3,2-2.79,4.26.11,1.06,0,2.15,0,3.23.08,1.37-.63,1.66-1.83,1.66s-1.59-.55-1.57-1.67c0-1.74,0-3.48,0-5.22,0-1.13-.4-1.73-1.58-1.67-.42-.5-1-.42-1.53-.34l-2.07-2Z"/><path class="cls-1" d="M186.12,291.25c-1.68.13-2.21,1.08-2.08,2.67.1,1.32,0,2.65,0,4,0,1.15-.18,1.88-1.6,1.89s-1.93-.61-1.79-1.94a4.17,4.17,0,0,0,0-.5c.14-3.18.7-6.55-3.85-7.32-.56-.09-1-.82-1.51-1.25-.22-.49-.45-1-.68-1.47q0-7.49,0-15c0-1,0-2,1.47-2s1.72.85,1.71,2.06c0,3.91,0,7.82,0,11.73,0,3.36,1.22,4.47,4.58,4.4s4.32-1.13,4.34-4.37q0-6.86.05-13.72l1-.23c2-.13,2.49.84,2.42,2.71-.14,3.65-.15,7.31,0,11a7.71,7.71,0,0,1-2.64,6.65C187,290.69,186.42,290.71,186.12,291.25Z"/><path class="cls-1" d="M330.6,287.31c0-4.89.06-9.78.13-14.67,0-.77-.4-1.81.66-2.17s1.2.6,1.57,1.23c.56,1,.94.4,1.48-.09,2.05-1.9,4.86-2.38,6.77-1.23s3,4.31,2.38,6.9c-.24,1-.89,1.05-1.66,1.06s-1.51-.23-1.58-1.19,0-1.66-.11-2.48c-.27-2.18-2-2.91-3.77-1.61a6.13,6.13,0,0,0-2.29,5c-.11,3.06,0,6.13.08,9.19,0,.35,0,.7,0,1-.06,3.15-.12,6.31-.17,9.46,0,1.22,0,2.41-1.72,2.41s-1.66-1.25-1.68-2.43l-.09-9C330.61,288.31,330.61,287.81,330.6,287.31Z"/><path class="cls-1" d="M246.55,300.22c-1.58.22-2-.63-2-2,0-3.12-.09-6.23-.14-9.35a2.16,2.16,0,0,0,0-1.58q.09-7.53.17-15c0-1.35.11-2.52,1.88-1.31,1.57,3.49,1.87-.34,2.81-.49,5.38-1.8,8.67.71,8.21,6.18-.11,1.25-.57,1.77-1.84,1.76s-1.49-.72-1.49-1.77c0-1.84.12-4.11-2.4-4.11s-3.34,2.09-3.55,4.34c-.7.78-.45,1.74-.45,2.63,0,5.91,0,11.82,0,17.72A3.44,3.44,0,0,1,246.55,300.22Z"/><path class="cls-1" d="M127.27,270.17c2.83.05,5.65.06,8.47.16,1,0,2.41-.5,2.37,1.3,0,1.62-1.36,1.13-2.25,1.17-1.66.06-3.33.06-5,0-1.42-.05-2.18.4-2.13,2,.08,2.41,0,4.82,0,7.23,0,1.28.55,1.81,1.81,1.77,1.41,0,2.82,0,4.24,0,.87,0,1.44.3,1.42,1.29s-.65,1.21-1.49,1.21c-1.41,0-2.83,0-4.24,0-.69,0-1.62-.24-1.59,1,0,.51,0,1,0,1.54,0,2.91-.16,5.81-.09,8.71,0,1.54-.38,2.39-2,2.36l-1-.13-.29-.45c.06-1.07.16-2.14.17-3.21q.06-12.89.09-25.78h0Z"/><path class="cls-1" d="M105.76,299.87c-2.49,0-5-.15-7.46-.09-1.49,0-2.06-.47-2-2,.06-3,0-6-.1-8.95,0-.51,0-1,0-1.54,0-4.9.1-9.79.13-14.69,0-1.21-.11-2.32,1.71-2.32s1.69,1.13,1.69,2.33c0,4.9.08,9.8.12,14.7l0,1.5c0,1-.09,2-.09,2.94,0,6,0,6,6,5.34l1.55.05c.78,1.09,1,2.08-.5,2.75Z"/><path class="cls-1" d="M27.92,287.34Q28,280,28,272.65c0-1.22-.27-2.53,1.74-2.56s1.88,1.08,1.88,2.43q0,12.44,0,24.89c0,1.37,0,2.42-1.9,2.38S28,298.74,28,297.5c0-3.07-.06-6.13-.1-9.2C27.92,288,27.92,287.66,27.92,287.34Z"/><path class="cls-1" d="M55,228.37c-.64,1.76.89,4.26-.88,5.29-1.38.8-3.54.25-5.35.31-.82,0-1.64.1-2.47.14h-1l-4.06-.06-.54-.65,0-5,0-1.54c.92-2,2.83-.63,4.16-1.23a3.24,3.24,0,0,0,2,0c2,0,4,.11,6,.13.94,0,1.86,0,2.25,1.1A1.9,1.9,0,0,0,55,228.37Z"/><path class="cls-1" d="M113.12,287.29q.07-7.34.14-14.69c0-1.21-.11-2.32,1.71-2.32s1.68,1.13,1.69,2.33c0,4.9.07,9.8.11,14.7l0,1.49c0,3.07-.1,6.13-.06,9.2,0,1.24-.34,1.8-1.68,1.78s-1.76-.48-1.76-1.76c0-3.07-.06-6.13-.1-9.19C113.13,288.32,113.12,287.81,113.12,287.29Z"/></g></g></svg>